<svg id="Capa_1" data-name="Capa 1" xmlns="http://www.w3.org/2000/svg" width="230" height="75" viewBox="0 0 230 75">
  <defs>
    <style>
      .cls-1 {
        fill: #002169;
      }
    </style>
  </defs>
  <title>Mesa de trabajo 2</title>
  <g>
    <path class="cls-1" d="M87.16,8,89,7.84l.19.19v6.36c0,1.44.77,2.18,1.93,2.18S93,15.83,93,14.39V10.08A13.57,13.57,0,0,0,92.86,8l1.9-.11v6.66c0,2.31-1.7,3.47-3.78,3.47s-3.67-1.17-3.67-3.47v-4.1A19.9,19.9,0,0,0,87.16,8Z"/>
    <path class="cls-1" d="M100.43,17.85v-4.7a8.67,8.67,0,0,0-.29-2.25l1.68-.33a7,7,0,0,1,.32,1,3.42,3.42,0,0,1,2.33-1c1.22,0,2,.79,2,2.19v5.09h-1.81V13.1c0-.87-.34-1.29-1-1.29a2.34,2.34,0,0,0-1.36.53v5.51Z"/>
    <path class="cls-1" d="M112.63,9.45a1,1,0,0,1-1-1,1.24,1.24,0,0,1,1.25-1.22,1,1,0,0,1,1,1A1.21,1.21,0,0,1,112.63,9.45Zm-.8,3.71a14.58,14.58,0,0,0-.17-2.38l1.76-.21.2.2v7.08h-1.79Z"/>
    <path class="cls-1" d="M122.8,17.88h-1.93l-2.31-7.16,1.88-.15,1,3.59a13.85,13.85,0,0,1,.6,2.44h0a16.91,16.91,0,0,1,.64-2.44l1-3.59,1.38.11.11.2Z"/>
    <path class="cls-1" d="M135.33,14.47h-4c.14,1.54,1,2.23,2.15,2.23a3.64,3.64,0,0,0,1.78-.51l.11,1.19A4.47,4.47,0,0,1,133,18a3.3,3.3,0,0,1-3.54-3.61c0-2.38,1.51-3.81,3.37-3.81a2.65,2.65,0,0,1,2.75,2.89c0,.23,0,.53,0,.79Zm-4.05-.66,2.5-.1c0-.16,0-.3,0-.52,0-.89-.36-1.55-1.07-1.55S131.34,12.44,131.28,13.81Z"/>
    <path class="cls-1" d="M140.94,17.85v-4.7a8.67,8.67,0,0,0-.29-2.25l1.68-.33a6.07,6.07,0,0,1,.39,1.49c.51-.88,1.13-1.49,1.9-1.49a1.2,1.2,0,0,1,.71.2l-.19,1.69a2.8,2.8,0,0,0-.8-.12,2.7,2.7,0,0,0-1.61.58v4.93Z"/>
    <path class="cls-1" d="M154.43,12.34a4.47,4.47,0,0,0-1.94-.57c-.7,0-1.13.32-1.13.79,0,1.29,3.43,1.1,3.43,3.34,0,1.28-1.12,2.09-2.87,2.09a5.28,5.28,0,0,1-2.35-.51l.13-1.37a4.93,4.93,0,0,0,2.26.68c.72,0,1.09-.33,1.09-.76,0-1.29-3.41-1.11-3.41-3.33,0-1.27,1.13-2.13,2.87-2.13a5.57,5.57,0,0,1,2.05.4Z"/>
    <path class="cls-1" d="M161.15,9.45a1,1,0,0,1-1-1,1.24,1.24,0,0,1,1.24-1.22,1,1,0,0,1,1,1A1.21,1.21,0,0,1,161.15,9.45Zm-.8,3.71a14.59,14.59,0,0,0-.18-2.38l1.77-.21.2.2v7.08h-1.79Z"/>
    <path class="cls-1" d="M173.5,7l.2.2v8.73a6,6,0,0,0,.33,1.94l-1.55.14a8,8,0,0,1-.39-1h0a2.33,2.33,0,0,1-2,1c-1.63,0-2.76-1.3-2.76-3.48,0-2.55,1.56-3.94,3.67-3.94a4.13,4.13,0,0,1,.9.1V9.58a14.28,14.28,0,0,0-.16-2.38Zm-2.65,9.94a1.44,1.44,0,0,0,1.06-.46V11.63a3.6,3.6,0,0,0-.7-.07c-1.25,0-2,.93-2,2.72C169.19,15.87,169.8,16.92,170.85,16.92Z"/>
    <path class="cls-1" d="M184.88,17.85l-1.5.14a3.2,3.2,0,0,1-.39-1h0a2.7,2.7,0,0,1-2.14,1,1.68,1.68,0,0,1-1.88-1.72c0-1.63,1.72-2.32,3.89-2.41v-.68c0-.84-.43-1.28-1.34-1.28a4.42,4.42,0,0,0-2.16.63l-.1-1.4a7.51,7.51,0,0,1,2.71-.56c1.77,0,2.68.86,2.68,2.36,0,1,0,2.11,0,3A6.16,6.16,0,0,0,184.88,17.85Zm-3.25-.93a1.84,1.84,0,0,0,1.19-.49V14.49c-1.16.1-2.13.58-2.13,1.48A.89.89,0,0,0,181.63,16.92Z"/>
    <path class="cls-1" d="M195.44,7l.2.2v8.73a6,6,0,0,0,.33,1.94l-1.55.14a6.78,6.78,0,0,1-.38-1h0a2.33,2.33,0,0,1-2,1c-1.63,0-2.76-1.3-2.76-3.48,0-2.55,1.56-3.94,3.67-3.94a4.13,4.13,0,0,1,.9.1V9.58a14.28,14.28,0,0,0-.16-2.38Zm-2.65,9.94a1.42,1.42,0,0,0,1.06-.46V11.63a3.53,3.53,0,0,0-.7-.07c-1.25,0-2,.93-2,2.72C191.13,15.87,191.74,16.92,192.79,16.92Z"/>
    <path class="cls-1" d="M208.72,49.12A3.11,3.11,0,1,1,205.61,46,3.13,3.13,0,0,1,208.72,49.12Zm-3.11-3.42A3.42,3.42,0,1,0,209,49.12,3.41,3.41,0,0,0,205.61,45.7Z"/>
    <path class="cls-1" d="M102.91,52.16H87.51V32.45a54.92,54.92,0,0,0-.35-6.52l4.69-.38.54.53V48.61l10.52-.26Z"/>
    <path class="cls-1" d="M121.31,52.16l-4,.38a10.29,10.29,0,0,1-1-2.63h-.11a7.18,7.18,0,0,1-5.68,2.63c-3,0-5-1.72-5-4.57,0-4.35,4.58-6.18,10.34-6.41V39.73c0-2.21-1.15-3.39-3.55-3.39A11.83,11.83,0,0,0,106.51,38l-.26-3.74a20.46,20.46,0,0,1,7.2-1.49c4.73,0,7.13,2.29,7.13,6.29,0,2.67-.11,5.61-.11,7.86A15.73,15.73,0,0,0,121.31,52.16Zm-8.66-2.48a4.87,4.87,0,0,0,3.17-1.3V43.24c-3.09.26-5.65,1.52-5.65,3.92A2.37,2.37,0,0,0,112.65,49.68Z"/>
    <path class="cls-1" d="M135.41,52.54a17.2,17.2,0,0,1-7.13-1.41l.34-4.16a15.17,15.17,0,0,0,6.86,1.76c2.71,0,4.2-1.22,4.2-3.2,0-2.75-2.82-3.93-5.61-5.34S128.39,37,128.39,33c0-4.72,4-7.43,9.53-7.43a17.32,17.32,0,0,1,6.1,1.07l-.61,4.23a11.61,11.61,0,0,0-5.56-1.49c-2.86,0-4.43,1.26-4.43,3.24,0,2.63,2.86,3.74,5.61,5.15s5.68,3.28,5.68,7.43C144.71,49.91,140.9,52.54,135.41,52.54Z"/>
    <path class="cls-1" d="M163,52.16l-4,.38a10.29,10.29,0,0,1-1-2.63h-.11a7.16,7.16,0,0,1-5.68,2.63c-3,0-5-1.72-5-4.57,0-4.35,4.57-6.18,10.33-6.41V39.73c0-2.21-1.15-3.39-3.55-3.39A11.76,11.76,0,0,0,148.24,38L148,34.28a20.46,20.46,0,0,1,7.2-1.49c4.73,0,7.13,2.29,7.13,6.29,0,2.67-.11,5.61-.11,7.86A15.73,15.73,0,0,0,163,52.16Zm-8.66-2.48a4.87,4.87,0,0,0,3.17-1.3V43.24c-3.09.26-5.65,1.52-5.65,3.92A2.37,2.37,0,0,0,154.37,49.68Z"/>
    <path class="cls-1" d="M166.34,52.16v-22a43.18,43.18,0,0,0-.46-6.33l4.69-.57.53.54V52.16Z"/>
    <path class="cls-1" d="M175.64,52.16v-22a43.18,43.18,0,0,0-.46-6.33l4.69-.57.53.54V52.16Z"/>
    <path class="cls-1" d="M199.62,43.16H188.9c.38,4.12,2.56,6,5.72,6a9.48,9.48,0,0,0,4.73-1.37l.3,3.16a11.7,11.7,0,0,1-6.29,1.64c-5.64,0-9.41-3.43-9.41-9.61s4-10.14,9-10.14c4.53,0,7.32,3.17,7.32,7.7,0,.61,0,1.41,0,2.1Zm-10.75-1.75,6.63-.27c0-.42,0-.8,0-1.37,0-2.36-1-4.12-2.86-4.12C190.54,35.65,189,37.79,188.87,41.41Z"/>
    <path class="cls-1" d="M204.49,51V48.2a6.46,6.46,0,0,0-.05-.89h1.13c.91,0,1.44.44,1.44,1.15a1,1,0,0,1-.67,1l.85,1.53-.79,0c-.23-.44-.45-.91-.66-1.38h-.56V51Zm.69-3.2v1.37h.34c.53,0,.78-.25.78-.68s-.22-.69-.78-.69Z"/>
    <g>
      <path class="cls-1" d="M91.9,70.26c-2.8,0-4.81-2.05-4.81-5.57s2.16-5.93,5.07-5.93S97,61,97,64.48C97,68.25,94.7,70.26,91.9,70.26ZM92,68.69c1.84,0,2.76-1.65,2.76-4.16s-.83-4.2-2.69-4.2S89.25,62,89.25,64.49,90.19,68.69,92,68.69Z"/>
      <path class="cls-1" d="M105.45,70.1l-1.7.16a4.09,4.09,0,0,1-.44-1.12h0a3.06,3.06,0,0,1-2.42,1.12,1.9,1.9,0,0,1-2.13-2c0-1.85,2-2.63,4.4-2.73V64.8c0-.94-.48-1.44-1.51-1.44a5,5,0,0,0-2.45.71L99,62.48a8.69,8.69,0,0,1,3.08-.64c2,0,3,1,3,2.69,0,1.13-.05,2.38-.05,3.34A6.9,6.9,0,0,0,105.45,70.1ZM101.76,69a2,2,0,0,0,1.35-.55V66.3c-1.31.11-2.4.65-2.4,1.67A1,1,0,0,0,101.76,69Z"/>
      <path class="cls-1" d="M110.69,67l-1.63,3.09h-1.64l-.1-.23,2.36-3.82-2.36-4,2.07-.22,1.8,3.35,1.67-3.35,1.63.13.11.23-2.39,3.85,2.39,4h-2.16Z"/>
      <path class="cls-1" d="M123.09,70.1l-1.71.16a4.43,4.43,0,0,1-.44-1.12h0a3.06,3.06,0,0,1-2.42,1.12,1.91,1.91,0,0,1-2.13-2c0-1.85,2-2.63,4.41-2.73V64.8c0-.94-.49-1.44-1.52-1.44a5,5,0,0,0-2.45.71l-.11-1.59a8.63,8.63,0,0,1,3.07-.64c2,0,3,1,3,2.69,0,1.13,0,2.38,0,3.34A6.64,6.64,0,0,0,123.09,70.1ZM119.4,69a2.08,2.08,0,0,0,1.35-.55V66.3c-1.32.11-2.41.65-2.41,1.67A1,1,0,0,0,119.4,69Z"/>
      <path class="cls-1" d="M131,64a3.44,3.44,0,0,0-1.91-.66c-1.21,0-2,.92-2,2.58s.84,2.86,2.31,2.86a3.76,3.76,0,0,0,1.82-.55l.13,1.35a4.44,4.44,0,0,1-2.46.66,3.77,3.77,0,0,1-3.9-4.13,3.94,3.94,0,0,1,4-4.29,4.86,4.86,0,0,1,2.44.6Z"/>
      <path class="cls-1" d="M139.89,70.1l-1.71.16a4.07,4.07,0,0,1-.43-1.12h-.05a3.07,3.07,0,0,1-2.43,1.12,1.9,1.9,0,0,1-2.12-2c0-1.85,1.95-2.63,4.4-2.73V64.8c0-.94-.49-1.44-1.51-1.44a5.05,5.05,0,0,0-2.46.71l-.11-1.59a8.68,8.68,0,0,1,3.07-.64c2,0,3,1,3,2.69,0,1.13-.05,2.38-.05,3.34A6.9,6.9,0,0,0,139.89,70.1ZM136.2,69a2.06,2.06,0,0,0,1.35-.55V66.3c-1.32.11-2.41.65-2.41,1.67A1,1,0,0,0,136.2,69Z"/>
    </g>
    <g>
      <polygon class="cls-1" points="51.69 6.94 42.17 6.94 46.92 15.18 34.23 37.16 43.75 37.16 56.44 15.18 51.69 6.94"/>
      <polygon class="cls-1" points="15.2 48.15 19.95 56.39 24.71 48.16 50.1 48.16 45.34 39.91 19.95 39.91 15.2 48.15"/>
      <polygon class="cls-1" points="75.47 48.15 80.23 39.91 70.72 39.91 58.03 17.93 53.27 26.17 65.96 48.15 75.47 48.15"/>
      <polygon class="cls-1" points="69.06 59.19 73.82 50.95 64.31 50.95 51.62 28.97 46.86 37.21 59.55 59.19 69.06 59.19"/>
      <polygon class="cls-1" points="38.99 6.94 29.48 6.94 34.23 15.18 21.54 37.16 31.06 37.16 43.75 15.18 38.99 6.94"/>
      <polygon class="cls-1" points="21.54 59.19 26.3 67.44 31.05 59.2 56.44 59.2 51.68 50.96 26.3 50.96 21.54 59.19"/>
    </g>
  </g>
</svg>
